# xmcd
#
# Track frame offsets:
# 150
# 5754
# 20767
# 34673
# 43861
# 57658
# 73881
# 78418
# 90072
# 105318
# 119591
# 136865
# 144697
#
# Disc length: 1989 seconds
#
# Revision: 0
# Processed by: cddbd v1.5PL3 Copyright (c) Steve Scherf et al.
# Submitted via: Audion 3.0.2 (http://www.panic.com/audion/)
#
DISCID=b307c30d
DTITLE=The Magic Bullet Theory - Poems and Explosions
DYEAR=1900
DGENRE=
TTITLE0=Bring in the Band
TTITLE1=The Truth Is a White Lie
TTITLE2=21st Century Blues
TTITLE3=Think!
TTITLE4=Hell 9000
TTITLE5=Sweet Baby Dynamite
TTITLE6=Blues #2
TTITLE7=Boomchasers
TTITLE8=Heart Attack
TTITLE9=The Big Knockout (2nd version)
TTITLE10=No. 1 with a Bullet
TTITLE11=Mercy Me
TTITLE12=Go to Hell
EXTD=
EXTT0=
EXTT1=
EXTT2=
EXTT3=
EXTT4=
EXTT5=
EXTT6=
EXTT7=
EXTT8=
EXTT9=
EXTT10=
EXTT11=
EXTT12=
PLAYORDER=
